<?xml version="1.0" standalone="no"?>
<!DOCTYPE svg PUBLIC "-//W3C//DTD SVG 20010904//EN"
 "http://www.w3.org/TR/2001/REC-SVG-20010904/DTD/svg10.dtd">
<svg version="1.0" xmlns="http://www.w3.org/2000/svg"
 width="1300.000000pt" height="1300.000000pt" viewBox="0 0 1300.000000 1300.000000"
 preserveAspectRatio="xMidYMid meet">
<metadata>
Created by potrace 1.16, written by Peter Selinger 2001-2019
</metadata>
<g transform="translate(0.000000,1300.000000) scale(0.100000,-0.100000)"
fill="#000000" stroke="none">
<path d="M6395 11291 c-11 -19 292 -634 376 -761 34 -52 64 -97 66 -99 1 -2
13 4 25 15 23 19 23 19 6 -2 -10 -11 -18 -24 -18 -28 0 -4 26 -46 57 -94 31
-48 98 -150 148 -227 50 -77 112 -171 137 -210 25 -38 83 -128 130 -200 47
-71 124 -191 173 -265 48 -74 123 -189 166 -255 512 -786 841 -1318 1049
-1700 115 -211 154 -286 250 -480 154 -315 379 -829 521 -1194 8 -20 12 -21
27 -10 16 12 16 12 1 -5 -15 -16 -11 -30 50 -187 l66 -169 50 -16 c28 -9 83
-34 123 -55 39 -22 72 -36 72 -32 0 7 -95 254 -196 511 -20 52 -33 71 -43 67
-10 -4 -11 -2 -3 8 11 13 -88 271 -238 617 -181 419 -467 987 -648 1285 -13
22 -48 81 -77 130 -110 184 -158 263 -235 385 -44 69 -89 142 -100 162 -11 20
-48 80 -82 132 -35 53 -76 118 -93 144 -30 49 -196 304 -490 757 -43 66 -108
165 -143 220 -108 166 -164 252 -273 420 -58 88 -140 215 -184 283 l-79 123
-45 -43 -46 -43 43 46 44 47 -62 93 c-81 122 -211 282 -439 544 -14 17 -38 45
-53 63 -15 17 -29 28 -33 23z"/>
<path d="M3780 10614 c-302 -58 -567 -259 -708 -539 -73 -145 -102 -298 -85
-447 20 -168 64 -262 217 -466 62 -81 188 -248 282 -372 94 -124 228 -301 299
-395 190 -251 202 -265 235 -265 36 0 52 14 149 138 86 109 98 144 66 186 -34
44 -20 92 69 246 211 363 224 395 192 505 -32 109 -146 195 -259 195 -23 0
-112 -19 -197 -41 -85 -22 -173 -45 -195 -51 -56 -14 -172 -4 -225 19 -75 33
-152 112 -195 200 -22 43 -46 87 -55 97 -8 11 -10 17 -5 14 6 -4 10 37 10 115
0 116 2 125 31 188 85 179 271 275 435 225 155 -47 218 -114 429 -456 128
-207 278 -339 488 -429 232 -98 517 -102 751 -9 86 33 181 85 181 98 0 8 -24
29 -191 165 -40 33 -130 107 -201 165 -70 58 -168 139 -219 180 -50 41 -138
113 -194 160 -597 492 -596 492 -742 543 -78 27 -103 31 -213 33 -69 1 -136 0
-150 -2z"/>
<path d="M4269 8203 c-14 -16 -42 -50 -64 -77 l-38 -48 789 -787 c828 -825
1013 -1007 1259 -1236 220 -206 451 -412 531 -476 17 -13 107 -85 200 -160
146 -117 256 -200 499 -380 167 -123 833 -569 1392 -934 274 -178 340 -205
518 -212 141 -6 231 12 350 71 143 71 243 172 319 323 48 95 68 187 69 308 0
124 -20 210 -75 324 -53 109 -176 237 -283 297 -210 116 -469 118 -678 6 -193
-104 -334 -294 -366 -493 -18 -108 -17 -110 46 -149 32 -19 71 -44 88 -55 16
-12 35 -24 40 -27 7 -4 10 29 10 95 0 115 17 177 71 267 89 149 244 238 429
248 78 4 100 1 170 -23 215 -72 355 -265 355 -490 0 -236 -158 -437 -389 -496
-88 -23 -143 -24 -232 -5 -86 19 -136 44 -332 173 -89 58 -227 149 -307 201
-211 138 -722 480 -815 545 -529 371 -796 577 -1150 887 -66 57 -122 107 -125
110 -3 3 -32 29 -65 59 -33 30 -92 86 -132 124 -45 42 -77 66 -84 61 -7 -4 -9
-3 -6 3 4 6 -35 50 -86 98 -51 48 -495 489 -987 981 l-896 894 -25 -27z"/>
</g>
</svg>
